# xmcd CD database file
#
# Track frame offsets:
#	150
#	14559
#	35512
#	65188
#	90313
#	112136
#	142568
#	171728
#	196990
#	216686
#	238799
#	255995
#
# Disc length: 3742 seconds
#
# Revision: 0
# Processed by: cddbd v1.5.2PL0 Copyright (c) Steve Scherf et al.
# Submitted via: CDex 1.77
#
DISCID=b30e9c0c
DTITLE=Carmen Paris - Carmen Paris
DYEAR=2015
DGENRE=Jazz
TTITLE0=Carmen Paris - Obertura Gigante - Giant Overture
TTITLE1=Carmen Paris - Noble y Bravia - Noble and Brave
TTITLE2=Carmen Paris - Mucho Ringo Rango
TTITLE3=Carmen Paris - Cadenica de Oro - Little Chain of Gold
TTITLE4=Carmen Paris - Vivir en Amor
TTITLE5=Carmen Paris - Solo Uno - Just One
TTITLE6=Carmen Paris - Jotera lo Seras Tu
TTITLE7=Carmen Paris - No mas dia de la Marmota - No more Groundhog Day
TTITLE8=Carmen Paris - Entre tus manos - Between your Hands
TTITLE9=Carmen Paris - El Llanto del Ruisenor - The Cry of the Nightingale
TTITLE10=Carmen Paris - Hija de la Gran Madre
TTITLE11=Carmen Paris - En mi Pecho
EXTD=YEAR: 2015
EXTT0=
EXTT1=
EXTT2=
EXTT3=
EXTT4=
EXTT5=
EXTT6=
EXTT7=
EXTT8=
EXTT9=
EXTT10=
EXTT11=
PLAYORDER=
